<svg width="600" height="600" xmlns="http://www.w3.org/2000/svg">
 <!-- Created with Method Draw - http://github.com/duopixel/Method-Draw/ -->

 <g id="Layer_1">
  <title>Layer 1</title>
  <g id="svg_44">
   <path d="m317.16797,338.26953c-8.55078,10.07031 -24.83985,9.24219 -32.13281,-2.37109l-24.78907,-39.52344l-32,-3l15,42.93359c10.28125,28.27735 7.28516,59.67969 -8.16015,85.50391l-7.58985,12.69141l47.75,25l59.03125,-121.89453l-17.10937,0.66015zm0,0" fill="#ddb44e" id="svg_4"/>
   <path d="m362.74609,336.30859c-10.27734,28.28125 -7.27734,59.67969 8.16016,85.5l7.58984,12.69141l-52.25,24.75l-56.91797,-24.75c1.53907,-10.37109 4.20704,-20.51172 7.95704,-30.23047c3.75,-9.73047 8.5625,-19.03906 14.38281,-27.75781l25.5,-38.24219c0.00781,-0.00781 0.00781,-0.01953 0.01953,-0.01953c0.55859,-0.67187 1.09766,-1.39062 1.58984,-2.14844l5.5,-8.49218l24.26953,-37.46094s7.1211,-12.32031 21.28125,-8.97656c14.16797,3.32812 9,14.32812 9,14.32812l-4.08984,8.83984l-11.99219,31.96875zm0,0" fill="#edd183" id="svg_5"/>
   <path d="m401.49609,479.5l0,-35c0,-5.52344 -4.47656,-10 -10,-10l-176.99609,0c-5.52344,0 -10,4.47656 -10,10l0,35l196.99609,0zm0,0" fill="#96bc5e" id="svg_6"/>
   <path d="m401.49609,444.5l0,35l-30,0l0,-35c0,-5.51953 -4.48047,-10 -10,-10l30,0c5.51953,0 10,4.48047 10,10zm0,0" fill="#85993d" id="svg_7"/>
   <path d="m277.10547,107.60938c-2.58985,-16.4961 -16.86328,-29.10938 -34.08203,-29.10938c-1.66407,0 -3.29297,0.125 -4.89453,0.35156c-3.95704,-16.30078 -18.64063,-28.40625 -36.16016,-28.40625c-18.87109,0 -34.45313,14.04688 -36.88281,32.25391c-4.90235,-2.67578 -10.52735,-4.19922 -16.50391,-4.19922c-19.05469,0 -34.5,15.44531 -34.5,34.5c0,5.02344 1.07813,9.78906 3.00781,14.08984c-19.82422,1.28516 -35.50781,17.76172 -35.50781,37.91016c0,15.83594 9.6875,29.40234 23.45703,35.11328c-12.1914,5.76563 -20.625,18.17188 -20.625,32.55469c0,17.58594 12.61328,32.21484 29.28125,35.36328c-1.2539,3.30859 -1.94922,6.89063 -1.94922,10.63672c0,16.56641 13.4336,30 30,30c9.69141,0 18.30078,-4.59766 23.78516,-11.72656c3.28906,13.98047 15.83594,24.39453 30.82031,24.39453c14.94922,0 27.47266,-10.36719 30.79297,-24.30078c5.48828,7.07422 14.06641,11.63281 23.71094,11.63281c16.57031,0 30,-13.42969 30,-30c0,-3.7461 -0.69141,-7.32813 -1.94531,-10.63672c16.66796,-3.14844 29.28125,-17.77734 29.28125,-35.36328c-11.11329,-44.16797 27.5625,-96.37891 -31.08594,-125.05859zm0,0" fill="#96bc5e" id="svg_8"/>
   <path d="m308.1875,232.67188c0,16.75781 -11.46094,30.83984 -26.96875,34.82812c-1.80078,-4.25 -2.80078,-8.92187 -2.80078,-13.82812c0,-9.23047 3.51953,-17.63282 9.27734,-23.94141c-1.45703,0.16797 -2.9375,0.26953 -4.44922,0.26953c-20.98828,0 -38,-17.01172 -38,-38c0,-14.37109 7.98047,-26.87891 19.75,-33.32812c-11.76953,-6.46094 -19.75,-18.97266 -19.75,-33.34375c0,-15.88672 9.76953,-29.5 23.63282,-35.16797c4.25781,4.80859 7.1875,10.80859 8.22656,17.44922c0.67969,0.33203 1.36328,0.67187 2.01172,1.01171c-2.48047,5.03907 -3.8711,10.70704 -3.8711,16.70704c0,14.37109 7.98047,26.88281 19.75,33.34375c-11.76953,6.44921 -19.75,18.95703 -19.75,33.32812c0,19.03125 13.99219,34.78906 32.24219,37.55859c0.20703,1.04297 0.4375,2.08204 0.69922,3.11329zm0,0" fill="#85993d" id="svg_9"/>
   <path d="m411.79687,459.5c9.59375,0 16.72266,8.88672 14.64063,18.25391l-3.33203,15c-1.52735,6.86328 -7.61328,11.74609 -14.64453,11.74609l-210.92969,0c-7.03125,0 -13.11719,-4.88281 -14.64453,-11.74609l-3.33203,-15c-2.08203,-9.36719 5.04687,-18.25391 14.64062,-18.25391l217.60156,0zm0,0" fill="#9e7f56" id="svg_10"/>
   <path d="m426.4375,477.75l-3.33203,15c-1.52735,6.87109 -7.60938,11.75 -14.63672,11.75l-30,0c7.02734,0 13.10937,-4.87891 14.63672,-11.75l2.9414,-13.25l0.39063,-1.75c2.07812,-9.35937 -5.05078,-18.25 -14.64063,-18.25l30,0c9.58985,0 16.71875,8.89063 14.64063,18.25zm0,0" fill="#87613c" id="svg_11"/>
   <path d="m362.74609,336.30859c-10.27734,28.28125 -7.27734,59.67969 8.16016,85.5l7.58984,12.69141l-30,0l-7.58984,-12.69141c-15.4375,-25.82031 -18.4375,-57.21875 -8.16016,-85.5l11.99219,-31.96875l4.08984,-8.83984s1.51954,-3.21875 0.64844,-6.71094c2.35156,-3.10937 9.15235,-10.25781 20.35156,-7.61718c14.16797,3.32812 9,14.32812 9,14.32812l-4.08984,8.83984l-11.99219,31.96875zm0,0" fill="#ddb44e" id="svg_12"/>
   <path d="m504.66797,158.66797c11.76562,-6.45703 19.74609,-18.96484 19.74609,-33.33203c0,-16.07031 -9.97656,-29.79688 -24.07031,-35.35547c3.83984,-6.07422 6.07031,-13.26172 6.07031,-20.98047c0,-21.72266 -17.60937,-39.33203 -39.33594,-39.33203c-11.39843,0 -21.66406,4.85547 -28.84765,12.60937c-1.875,-19.51562 -18.3125,-34.77734 -38.31641,-34.77734c-0.02734,0 -0.05469,0.00391 -0.08203,0.00391s-0.05469,-0.00391 -0.08594,-0.00391c-20.0039,0 -36.4414,15.26172 -38.3164,34.77344c-7.1836,-7.75 -17.44532,-12.60938 -28.84766,-12.60938c-21.72266,0 -39.33203,17.61328 -39.33203,39.33594c0,7.71484 2.23047,14.90625 6.0664,20.98047c-14.08984,5.55469 -24.0664,19.28516 -24.0664,35.35156c0,14.3711 7.97656,26.875 19.74609,33.33203c-11.76953,6.45703 -19.74609,18.96485 -19.74609,33.33203c0,20.98829 17.01172,38 38,38c1.50781,0 2.98828,-0.09765 4.44922,-0.26562c-5.76563,6.3125 -9.28516,14.71094 -9.28516,23.93359c0,19.60547 15.89453,35.5 35.5,35.5c7.13281,0 13.76953,-2.10937 19.33203,-5.73047c3.56641,16.51563 18.25,28.89844 35.83594,28.89844c17.90234,0 32.80078,-12.83203 36.01562,-29.80078c5.81641,4.17188 12.94532,6.63281 20.64844,6.63281c19.60547,0 35.5,-15.89453 35.5,-35.5c0,-9.22265 -3.51953,-17.62109 -9.28515,-23.93359c1.46093,0.17187 2.94531,0.26562 4.45312,0.26562c20.98438,0 38,-17.01171 38,-38c0,-14.36718 -7.98047,-26.87109 -19.74609,-33.32812zm0,0" fill="#92d37a" id="svg_13"/>
   <g fill="#70ba4d" id="svg_14">
    <path d="m433.48828,288.32031c-5.15234,14.00782 -18.60156,24.00782 -34.41016,24.00782c-5.33984,0 -10.42187,-1.13672 -15,-3.20704c10.75782,-4.82031 18.75782,-14.67968 21.01954,-26.58984c5.82031,4.16797 12.9375,6.64063 20.64843,6.64063c2.66016,0 5.25,-0.29297 7.74219,-0.85157zm0,0" id="svg_15"/>
    <path d="m434.81641,29.73828c-10.48829,0.58985 -19.87891,5.30078 -26.58985,12.53125c-1.3789,-14.34765 -10.64062,-26.41015 -23.39844,-31.76953c4.58985,-1.92969 9.62891,-3 14.91797,-3l0.17188,0c15.44922,0 28.76953,9.10156 34.89844,22.23828zm0,0" id="svg_16"/>
    <path d="m524.41797,192c0,20.98828 -17.01953,38 -38,38c-1.51172,0 -2.99219,-0.10156 -4.44922,-0.26953c5.75781,6.30859 9.27734,14.71094 9.27734,23.94141c0,19.59765 -15.89062,35.5 -35.5,35.5c-5.35937,0 -10.4375,-1.19141 -14.98828,-3.32032c12.10938,-5.66015 20.48828,-17.9414 20.48828,-32.17968c0,-9.23047 -3.51953,-17.63282 -9.27734,-23.94141c1.45703,0.16797 2.9375,0.26953 4.44922,0.26953c20.98047,0 38,-17.01172 38,-38c0,-14.37109 -7.98047,-26.87891 -19.75,-33.32812c11.76953,-6.46094 19.75,-18.97266 19.75,-33.34375c0,-16.0586 -9.98047,-29.78907 -24.07031,-35.34766c3.83984,-6.07031 6.07031,-13.26172 6.07031,-20.98047c0,-16.41016 -10.05078,-30.48047 -24.35156,-36.37109c4.62109,-1.91016 9.6914,-2.95703 15.01171,-2.95703c21.73047,0 39.33985,17.60937 39.33985,39.32812c0,7.71875 -2.23047,14.91016 -6.07032,20.98047c14.08985,5.55859 24.07032,19.28906 24.07032,35.34766c0,14.37109 -7.98047,26.88281 -19.75,33.34375c11.76953,6.44921 19.75,18.95703 19.75,33.32812zm0,0" id="svg_17"/>
   </g>
   <path d="m517.38672,159.66797c9.14453,-8.50391 14.52734,-20.52734 14.52734,-33.33594c0,-16.02344 -8.21094,-30.45703 -21.46484,-38.64844c2.28125,-5.58593 3.46484,-11.58203 3.46484,-17.68359c0,-25.82422 -21.00781,-46.83203 -46.83203,-46.83203c-8.64844,0 -17.08594,2.42578 -24.37109,6.85937c-6.7461,-17.1875 -23.39844,-29.02734 -42.79297,-29.02734c-0.05078,0 -0.11719,0 -0.16797,0c-19.39844,0 -36.04688,11.83984 -42.79688,29.02734c-7.28125,-4.4375 -15.72265,-6.85937 -24.37109,-6.85937c-25.82422,0 -46.83203,21.00781 -46.83203,46.83203c0,6.10156 1.18359,12.09766 3.46484,17.68359c-3.25,2.01172 -6.19531,4.40235 -8.79297,7.09375c-6.92968,-13.58984 -20.90234,-22.60546 -36.9414,-22.77343c-6.69922,-16.79297 -22.96875,-28.0586 -41.50781,-28.0586c-19.10938,0 -35.82422,12.21875 -42.08594,29.60547c-3.66797,-1.02344 -7.47656,-1.55078 -11.30469,-1.55078c-23.16016,0 -42,18.83984 -42,42c0,2.76953 0.26563,5.49609 0.79688,8.17188c-19.26563,5.36328 -33.29688,23.10546 -33.29688,43.82812c0,14.09375 6.42188,27.04297 17.04688,35.52734c-8.88282,8.13282 -14.21094,19.78516 -14.21094,32.14063c0,18.18359 11.27734,34.15625 27.72656,40.54687c-0.26172,1.79688 -0.39453,3.61719 -0.39453,5.45313c0,20.67578 16.82031,37.5 37.5,37.5c7.61719,0 14.85937,-2.25391 20.96484,-6.38672c6.89844,11.60937 19.49219,19.05078 33.63672,19.05078c12.51953,0 23.82422,-5.85156 31.04688,-15.25391l8.76562,25.19532c0.01172,0.03125 0.02344,0.0625 0.03516,0.09765c9.55469,26.27344 6.80078,55.10157 -7.54688,79.09375l-5.40625,9.03907l-8.74609,0c-9.64844,0 -17.5,7.84765 -17.5,17.49609l0,7.5l-2.80078,0c-6.85938,0 -13.25781,3.07031 -17.55078,8.42187c-4.29297,5.35157 -5.90235,12.26172 -4.41407,18.96094l3.33594,15c2.30469,10.3711 11.33594,17.61719 21.96485,17.61719l158.96484,0c4.14062,0 7.5,-3.35547 7.5,-7.5s-3.35938,-7.5 -7.5,-7.5l-158.96485,0c-3.54296,0 -6.55468,-2.41406 -7.32031,-5.87109l-3.33594,-15c-0.49609,-2.23438 0.04297,-4.53516 1.47266,-6.32032c1.42969,-1.78515 3.5625,-2.80859 5.84766,-2.80859l10.30078,0c4.14453,0 7.5,-3.35547 7.5,-7.5l0,-15c0,-1.37891 1.12109,-2.49609 2.5,-2.49609l12.97656,0l0.01563,0l0.01562,0l163.98828,0c1.37891,0 2.5,1.11718 2.5,2.49609l0,7.5l-154.49609,0c-4.14063,0 -7.5,3.35937 -7.5,7.5c0,4.14453 3.35937,7.5 7.5,7.5l172.29687,0c2.28907,0 4.42188,1.02344 5.85157,2.80859c1.42968,1.78516 1.96484,4.08594 1.46875,6.32032l-3.33203,15c-0.76954,3.45703 -3.77735,5.87109 -7.32032,5.87109l-16.96875,0c-4.14062,0 -7.5,3.35547 -7.5,7.5s3.35938,7.5 7.5,7.5l16.96875,0c10.625,0 19.65625,-7.24609 21.96485,-17.61719l3.33203,-15c1.48828,-6.69922 -0.1211,-13.60937 -4.41406,-18.96094c-4.28907,-5.35156 -10.6875,-8.42187 -17.55079,-8.42187l-2.80078,0l0,-7.5c0,-9.64844 -7.84765,-17.49609 -17.5,-17.49609l-8.74218,0l-5.40625,-9.03907c-14.35157,-23.99218 -17.10157,-52.82031 -7.57422,-79.02343l9.04297,-24.09375c6.1289,3.1914 13.04296,4.98437 20.26953,4.98437c17.78125,0 33.49218,-10.63281 40.41797,-26.34375c5.11328,2.09375 10.60546,3.17969 16.24609,3.17969c23.71094,0 43,-19.28906 43,-43c0,-5.92188 -1.20703,-11.70313 -3.50781,-17.02735c20.8789,-4.12109 36.67578,-22.57031 36.67578,-44.64062c0,-12.80859 -5.38672,-24.83203 -14.53125,-33.33203zm-284.3125,133.76953c-1.76953,-2.28125 -4.69141,-3.33984 -7.51172,-2.73437c-2.82031,0.60937 -5.04297,2.78515 -5.71094,5.59375c-2.60156,10.91406 -12.26562,18.53515 -23.5,18.53515c-11.26953,0 -20.9414,-7.65234 -23.51562,-18.60937c-0.66407,-2.81641 -2.89063,-5.00391 -5.71875,-5.61328c-2.83203,-0.61329 -5.76172,0.46484 -7.52735,2.75781c-4.30468,5.59375 -10.80468,8.80078 -17.83984,8.80078c-12.40625,0 -22.5,-10.09375 -22.5,-22.5c0,-2.73828 0.49219,-5.42188 1.46094,-7.97656c0.78515,-2.07422 0.61328,-4.39063 -0.47266,-6.32813c-1.08203,-1.93359 -2.96875,-3.28906 -5.14844,-3.70312c-13.42968,-2.53516 -23.17187,-14.3086 -23.17187,-27.99219c0,-10.96484 6.41015,-21.08203 16.33203,-25.77344c2.67969,-1.26953 4.36328,-4 4.28906,-6.96484c-0.07031,-2.96485 -1.88672,-5.60938 -4.625,-6.74219c-11.4375,-4.74609 -18.82812,-15.80859 -18.82812,-28.1875c0,-16.02344 12.51562,-29.39062 28.49218,-30.42578c2.45313,-0.16016 4.67188,-1.50781 5.94141,-3.61328c1.26563,-2.10156 1.42188,-4.69531 0.41797,-6.9375c-1.5625,-3.48438 -2.35156,-7.19141 -2.35156,-11.01953c0,-14.89063 12.10937,-27 27,-27c4.51172,0 8.97656,1.13281 12.91015,3.28125c2.16797,1.18359 4.78125,1.22265 6.98438,0.10547c2.20703,-1.11719 3.71875,-3.25 4.04297,-5.69922c1.96093,-14.67578 14.62109,-25.7461 29.44922,-25.7461c13.75781,0 25.6289,9.32813 28.875,22.67969c0.91015,3.75 4.51562,6.19531 8.33984,5.65234c1.29687,-0.18359 2.58984,-0.27343 3.83984,-0.27343c13.38282,0 24.60157,9.57422 26.67188,22.76953c0.09765,0.61719 0.27344,1.19922 0.5039,1.75c-1.59375,4.67187 -2.45312,9.65625 -2.45312,14.8125c0,12.80859 5.38281,24.82812 14.53125,33.33203c-9.14844,8.50391 -14.53125,20.52344 -14.53125,33.33203c0,20.67578 13.85937,38.17188 32.77734,43.69141c-1.3125,12.36328 -10.58203,22.625 -23.00781,24.96875c-2.17969,0.41406 -4.06641,1.76953 -5.14844,3.70703c-1.08593,1.93359 -1.25781,4.25 -0.46875,6.32422c0.96485,2.55468 1.45703,5.23437 1.45703,7.97656c0,12.40625 -10.09375,22.5 -22.5,22.5c-7,0 -13.48046,-3.18359 -17.78515,-8.73047zm54.88672,-19.22266c5.375,-2.08593 10.1914,-5.20312 14.25,-9.07812c4.04687,16.11719 17.21484,28.64062 33.67187,31.76562l-17.8789,27.59375l-6.73829,10.10547c-2.36718,2.67578 -5.6875,4.17188 -9.37109,4.16016c-4.35937,-0.02735 -8.19141,-2.15625 -10.51172,-5.85156l-15.77734,-25.10547c7.8125,-6.875 12.7539,-16.9375 12.7539,-28.14063c0,-1.83203 -0.13281,-3.65234 -0.39843,-5.44922zm-47.23828,153.78907l0.80078,-1.34375c16.66797,-27.86328 19.87109,-61.34766 8.79297,-91.86328l-6.36329,-18.28516c2.25391,0.41797 4.5586,0.65625 6.90625,0.65625c4.09375,0 8.03516,-0.67188 11.72657,-1.89063l16.09765,25.61719c4.45703,7.09375 11.76172,11.67188 19.94532,12.66016l-13.19922,19.78906c-10.96875,16.44922 -18.64453,35.22656 -22.41016,54.65625l-22.29687,0l0,0.00391zm114.98046,-93.26172c-11.10546,30.53515 -7.90625,64.03906 8.76954,91.91797l0.80078,1.34375l-86.94532,0c3.5625,-16.47266 10.2461,-32.34375 19.57813,-46.33594l25.33203,-37.98438c0.64844,-0.79687 1.26562,-1.625 1.82812,-2.5039l28.98438,-44.73047c1.64063,-0.39844 3.26172,-0.88281 4.84766,-1.47266c1.91015,4.16406 4.45312,7.96094 7.48437,11.29297l-10.67969,28.47266zm145.35938,-168.5c9.77734,5.36718 15.85156,15.61718 15.85156,26.75781c0,16.81641 -13.68359,30.5 -30.5,30.5c-1.15234,0 -2.32422,-0.07031 -3.58594,-0.21875c-3.10547,-0.34766 -6.11328,1.24609 -7.53906,4.03125c-1.42969,2.78906 -0.97265,6.16797 1.13672,8.47656c4.72266,5.17188 7.32422,11.875 7.32422,18.87891c0,15.4375 -12.5625,28 -28,28c-5.87891,0 -11.50781,-1.8086 -16.28516,-5.23047c-2.07812,-1.49219 -4.77343,-1.82031 -7.15625,-0.86719c-2.375,0.95313 -4.10156,3.05078 -4.57812,5.56641c-2.60547,13.73047 -14.65235,23.69531 -28.64844,23.69531c-13.64062,0 -25.62891,-9.66406 -28.50391,-22.98047c-0.51953,-2.41015 -2.1914,-4.41015 -4.47265,-5.35156c-0.91797,-0.37891 -1.89063,-0.56641 -2.85547,-0.56641c-1.4336,0 -2.85547,0.41016 -4.09375,1.21485c-4.53906,2.95703 -9.8125,4.51953 -15.23828,4.51953c-15.44141,0 -28,-12.5625 -28,-28c0,-7.00391 2.59765,-13.70703 7.32031,-18.875c2.10937,-2.3125 2.56641,-5.69141 1.14062,-8.47656c-1.42968,-2.78907 -4.43359,-4.38282 -7.54296,-4.03516c-1.25782,0.14844 -2.4336,0.21875 -3.58594,0.21875c-16.81641,0 -30.5,-13.68359 -30.5,-30.5c0,-11.13672 6.07422,-21.39063 15.85547,-26.75781c2.39843,-1.31641 3.89062,-3.83594 3.89062,-6.57422s-1.49219,-5.25781 -3.89062,-6.57422c-9.78125,-5.36719 -15.85547,-15.62109 -15.85547,-26.75781c0,-12.60938 7.58203,-23.75 19.32031,-28.37891c2.07813,-0.81641 3.68359,-2.52344 4.37891,-4.64453c0.6914,-2.125 0.40234,-4.44922 -0.79297,-6.33594c-3.21094,-5.08203 -4.90625,-10.95312 -4.90625,-16.97656c0,-17.55078 14.28125,-31.83203 31.83203,-31.83203c8.95703,0 17.25,3.625 23.35156,10.20703c2.00781,2.16406 5.10156,2.94922 7.89844,2.00781c2.80078,-0.94922 4.78125,-3.44922 5.06641,-6.39062c1.52734,-15.92969 14.74609,-27.94532 30.76171,-27.99219c0.10157,0.00391 0.20313,0.00391 0.33204,0c16.02343,0.03906 29.24609,12.0625 30.77343,27.99219c0.28125,2.9414 2.26563,5.4414 5.0625,6.39062c2.80469,0.94141 5.89844,0.15625 7.90235,-2.00781c6.10156,-6.58203 14.39453,-10.20703 23.35156,-10.20703c17.55078,0 31.83203,14.28125 31.83203,31.83203c0,6.02344 -1.69531,11.89453 -4.91016,16.97656c-1.1914,1.88672 -1.48046,4.21094 -0.78906,6.33594c0.69531,2.12109 2.30078,3.82812 4.37891,4.64453c11.73437,4.62891 19.32031,15.76953 19.32031,28.37891c0,11.13672 -6.07422,21.39062 -15.85547,26.75781c-2.39844,1.31641 -3.89062,3.83594 -3.89062,6.57422s1.49218,5.25781 3.89453,6.57422zm0,0" id="svg_18"/>
   <path d="m312.08203,111c-8.26953,0 -15,6.73047 -15,15s6.73047,15 15,15s15,-6.73047 15,-15s-6.72656,-15 -15,-15zm0,0" id="svg_19"/>
   <path d="m488.08203,111c-8.26953,0 -15,6.73047 -15,15s6.73047,15 15,15s15,-6.73047 15,-15s-6.72656,-15 -15,-15zm0,0" id="svg_20"/>
   <path d="m400.08203,29c-8.26953,0 -15,6.73047 -15,15s6.73047,15 15,15s15,-6.73047 15,-15s-6.72656,-15 -15,-15zm0,0" id="svg_21"/>
   <path d="m331.08203,83c8.26953,0 15,-6.73047 15,-15s-6.73047,-15 -15,-15s-15,6.73047 -15,15s6.73047,15 15,15zm0,0" id="svg_22"/>
   <path d="m468.08203,84c8.26953,0 15,-6.73047 15,-15s-6.73047,-15 -15,-15s-15,6.73047 -15,15s6.73047,15 15,15zm0,0" id="svg_23"/>
   <path d="m474.08203,194c0,8.26953 6.73047,15 15,15s15,-6.73047 15,-15s-6.73047,-15 -15,-15s-15,6.73047 -15,15zm0,0" id="svg_24"/>
   <path d="m454.08203,238c-8.26953,0 -15,6.73047 -15,15s6.73047,15 15,15s15,-6.73047 15,-15s-6.72656,-15 -15,-15zm0,0" id="svg_25"/>
   <path d="m400.08203,263c-8.26953,0 -15,6.73047 -15,15s6.73047,15 15,15s15,-6.73047 15,-15s-6.72656,-15 -15,-15zm0,0" id="svg_26"/>
   <path d="m312.08203,179c-8.26953,0 -15,6.73047 -15,15s6.73047,15 15,15s15,-6.73047 15,-15s-6.72656,-15 -15,-15zm0,0" id="svg_27"/>
   <path d="m345.08203,238c-8.26953,0 -15,6.73047 -15,15s6.73047,15 15,15s15,-6.73047 15,-15s-6.72656,-15 -15,-15zm0,0" id="svg_28"/>
   <path d="m375.08203,139c8.26953,0 15,-6.73047 15,-15s-6.73047,-15 -15,-15s-15,6.73047 -15,15s6.73047,15 15,15zm0,0" id="svg_29"/>
   <path d="m434.08203,131c8.26953,0 15,-6.73047 15,-15s-6.73047,-15 -15,-15s-15,6.73047 -15,15s6.73047,15 15,15zm0,0" id="svg_30"/>
   <path d="m450.08203,194c0,-8.26953 -6.73047,-15 -15,-15s-15,6.73047 -15,15s6.73047,15 15,15s15,-6.73047 15,-15zm0,0" id="svg_31"/>
   <path d="m371.08203,186c-8.26953,0 -15,6.73047 -15,15s6.73047,15 15,15s15,-6.73047 15,-15s-6.72656,-15 -15,-15zm0,0" id="svg_32"/>
   <path d="m200.08203,103c8.26953,0 15,-6.73047 15,-15s-6.73047,-15 -15,-15s-15,6.73047 -15,15s6.73047,15 15,15zm0,0" id="svg_33"/>
   <path d="m132.08203,165c0,-8.26953 -6.73047,-15 -15,-15s-15,6.73047 -15,15s6.73047,15 15,15s15,-6.73047 15,-15zm0,0" id="svg_34"/>
   <path d="m150.08203,129c8.26953,0 15,-6.73047 15,-15s-6.73047,-15 -15,-15s-15,6.73047 -15,15s6.73047,15 15,15zm0,0" id="svg_35"/>
   <path d="m120.08203,218c-8.26953,0 -15,6.73047 -15,15s6.73047,15 15,15s15,-6.73047 15,-15s-6.73047,-15 -15,-15zm0,0" id="svg_36"/>
   <path d="m197.08203,271c-8.26953,0 -15,6.73047 -15,15s6.73047,15 15,15s15,-6.73047 15,-15s-6.73047,-15 -15,-15zm0,0" id="svg_37"/>
   <path d="m146.08203,258c-8.26953,0 -15,6.73047 -15,15s6.73047,15 15,15s15,-6.73047 15,-15s-6.73047,-15 -15,-15zm0,0" id="svg_38"/>
   <path d="m264.08203,274c0,-8.26953 -6.73047,-15 -15,-15s-15,6.73047 -15,15s6.73047,15 15,15s15,-6.73047 15,-15zm0,0" id="svg_39"/>
   <path d="m240.08203,131c8.26953,0 15,-6.73047 15,-15s-6.73047,-15 -15,-15s-15,6.73047 -15,15s6.73047,15 15,15zm0,0" id="svg_40"/>
   <path d="m163.0625,192.44141c-8.26953,0 -15,6.73047 -15,15c0,8.27343 6.73047,15 15,15s15,-6.72657 15,-15c0,-8.26953 -6.73047,-15 -15,-15zm0,0" id="svg_41"/>
   <path d="m244.08203,216.5c0,-8.26953 -6.73047,-15 -15,-15s-15,6.73047 -15,15s6.73047,15 15,15s15,-6.73047 15,-15zm0,0" id="svg_42"/>
   <path d="m218.57812,157.5c0,-8.26953 -6.72656,-15 -15,-15c-8.26953,0 -15,6.73047 -15,15s6.73047,15 15,15c8.27344,0 15,-6.73047 15,-15zm0,0" id="svg_43"/>
  </g>
  <mask maskUnits="userSpaceOnUse" y="29" x="82" height="87" width="87" id="svg_72">
   <path id="svg_73" d="m82,29l87,0l0,87l-87,0l0,-87z" fill-rule="evenodd" fill="#fff"/>
  </mask>
  <g stroke="null" id="svg_58">
   <g stroke="null" id="svg_57">
    <title stroke="null" transform="translate(-14,0) translate(-13,0) translate(-300,-4) translate(52,-2) translate(-53,2) translate(0,4) translate(0,2) translate(0,8) translate(-6,-19) translate(-12.649110794067383,-12.649110794067383) translate(97,103) translate(272,272) translate(0,0) scale(0.3083333373069763) translate(0,0) translate(1196.7567138671875,1216.2161865234375) scale(1.1675676107406616,1.1351351737976074) translate(-1196.7567138671875,-1216.2161865234375) translate(1025,1071.428466796875) scale(1.0555555820465088) translate(-1025,-1071.428466796875) translate(937.7654418945312,980.79931640625) scale(1.0350877046585083) translate(-937.7654418945312,-980.79931640625) translate(890.7225341796875,934.4768676757812) scale(1.01694917678833) translate(-890.7225341796875,-934.4768676757812) ">Layer 1</title>
    <ellipse stroke="null" ry="116.66668" rx="120.00001" id="svg_55" cy="470.01757" cx="142.3509" opacity="undefined" stroke-opacity="null" stroke-dasharray="null" stroke-width="null" fill="#B8874D"/>
    <path stroke="null" id="svg_54" fill="#8bc34a" d="m242.07903,478.38931c-3.24375,-26.13303 -16.81094,-51.85135 -37.97344,-72.50955c-21.24844,-20.6582 -47.70157,-33.7665 -74.58126,-36.91862c-27.22187,-3.15213 -51.62656,4.14865 -68.69375,20.6582s-24.57657,40.23633 -21.24844,66.78559c3.24219,26.13303 16.81094,51.85135 37.97344,72.50956c21.24844,20.65669 47.70156,33.76498 74.58125,36.91862c4.18125,0.49675 8.3625,0.74588 12.37344,0.74588c22.1875,0 41.89844,-7.38281 56.23438,-21.40408c17.15313,-16.5931 24.66094,-40.31988 21.33438,-66.7856zm0,0"/>
    <path stroke="null" id="svg_53" fill="#558b2f" d="m118.77121,393.0206c-5.03438,-4.8125 -12.62813,-6.30577 -21.41875,-4.23068c-8.10625,1.99001 -16.38281,6.71897 -23.38125,13.523c-15.18906,14.8507 -19.37031,33.93208 -9.55625,43.55556c3.58281,3.48329 8.53281,5.14367 13.99375,5.14367c9.55781,0 21.07813,-5.06163 30.72031,-14.51953c6.99688,-6.71897 11.94688,-14.76715 13.99531,-22.64822c2.13282,-8.54492 0.59688,-15.92926 -4.35312,-20.82379zm0,0"/>
    <path stroke="null" id="svg_52" d="m164.59621,566.49696c-4.01094,0 -8.19219,-0.24913 -12.37344,-0.74739c-26.87969,-3.15213 -53.33438,-16.26042 -74.58126,-36.91862c-21.24844,-20.65821 -34.73125,-46.37652 -37.97344,-72.50956c-3.32812,-26.46571 4.26562,-50.1925 21.24688,-66.78559c16.98281,-16.59158 41.47344,-23.89237 68.69375,-20.65669c26.87969,3.15213 53.33438,16.26042 74.58126,36.9171c21.24844,20.6582 34.73125,46.37652 37.97344,72.51107c3.32812,26.46419 -4.26562,50.19249 -21.24844,66.78408c-14.50625,14.02127 -34.13281,21.4056 -56.31876,21.4056zm-47.36094,-189.98591c-19.96719,0 -37.54688,6.55338 -50.26094,18.99783c-15.10469,14.68511 -21.84531,36.00716 -18.85937,59.89953c3.07344,24.3086 15.70156,48.28451 35.58438,67.61502c19.88281,19.33051 44.54376,31.60938 69.54688,34.59592c24.57657,2.98655 46.42188,-3.56684 61.61095,-18.33551c15.18906,-14.76714 21.84531,-36.00565 18.85781,-59.89801c-3.07188,-24.30859 -15.7,-48.28451 -35.58282,-67.61502c-19.88282,-19.33051 -44.54376,-31.60938 -69.54688,-34.59592c-3.925,-0.49826 -7.67969,-0.66385 -11.35,-0.66385zm0,0"/>
    <path stroke="null" id="svg_51" d="m222.02434,492.41058c-2.30312,0 -4.18125,-1.74241 -4.26562,-3.98307c-1.025,-22.06793 -12.37344,-45.29796 -31.31719,-63.63195c-1.70781,-1.65885 -1.70781,-4.23068 0,-5.89106c1.70625,-1.65886 4.35156,-1.65886 6.05781,0c20.39532,19.82878 32.68282,44.9668 33.79219,69.1083c0.08594,2.3227 -1.70625,4.2322 -4.09531,4.31424c-0.08594,0.08355 -0.08594,0.08355 -0.17188,0.08355zm0,0"/>
    <path stroke="null" id="svg_50" d="m78.49465,451.01214c-5.54688,0 -10.41094,-1.66037 -13.99532,-5.14367c-9.89844,-9.62348 -5.71718,-28.70486 9.47188,-43.55556c6.99844,-6.80404 15.275,-11.61502 23.29688,-13.523c8.78906,-2.07509 16.46875,-0.58182 21.41875,4.23068c4.94844,4.8125 6.57032,12.27886 4.35156,20.82379c-1.9625,7.88108 -6.9125,15.92926 -13.82344,22.73177c-9.72813,9.37435 -21.16407,14.43598 -30.72031,14.43598zm26.28281,-54.83942c-2.04844,0 -4.01094,0.33268 -5.4625,0.66385c-6.48438,1.57682 -13.39688,5.64193 -19.28438,11.36589c-11.43438,11.11675 -15.7875,25.71832 -9.55781,31.77496c6.22969,6.05664 21.24844,1.82595 32.68281,-9.29232c5.8875,-5.72396 10.06875,-12.44445 11.69062,-18.83225c0.85312,-3.23568 1.62188,-9.2908 -2.13281,-12.94119c-2.13438,-2.07509 -5.12031,-2.73893 -7.93594,-2.73893zm0,0"/>
   </g>
  </g>
  <g stroke="null" id="svg_80">
   <g stroke="null" transform="matrix(2.6849392277991,0,0,2.6849392277991,-325.933643903634,-325.7987241410226) " id="svg_79">
    <title stroke="null" transform="translate(0,4.0969157218933105) translate(0,0.000011366208127583377) translate(0,-0.000011366208127583377) translate(0,0.000011366208127583377) translate(0,-0.000011366208127583377) translate(0,0.10983166843652725) translate(10.800989151000977,-1.4210854715202004e-14) translate(0.10983166843652725,-1.4210854715202004e-14) translate(41.71416473388672,-1.4210854715202004e-14) translate(-52.51515579223633,-4.096927165985107) translate(0.7448958158493042,0.3724479079246521) translate(33.435585021972656,34.50267791748047) translate(212.96998596191406,0) translate(0,213.96998596191406) ">Layer 1</title>
    <path stroke="null" fill="#24a980" d="m293.7603,337.95493c24.024,0 43.5,-19.476 43.5,-43.5s-19.476,-43.5 -43.5,-43.5s-43.5,19.476 -43.5,43.5s19.476,43.5 43.5,43.5z" id="svg_77"/>
    <path stroke="null" fill="#fffdfa" d="m299.1603,298.79093l-5.315,0.14c-2.798,0 -4.686,-0.07 -5.386,-0.14c-10.56,-0.42 -18.533,-2.308 -18.533,-4.476c0,-2.238 7.903,-4.056 18.533,-4.546l0,7.203c0.7,0.07 2.658,0.14 5.455,0.14c3.287,0 4.966,-0.14 5.246,-0.14l0,-7.203c10.63,0.49 18.533,2.308 18.533,4.546c0,2.168 -7.903,4.056 -18.533,4.476zm0,-9.791l0,-6.434l14.826,0l0,-9.861l-40.283,0l0,9.861l14.826,0l0,6.434c-12.029,0.559 -21.05,2.937 -21.05,5.805s9.021,5.245 21.05,5.805l0,20.701l10.701,0l0,-20.702c12.028,-0.559 21.05,-2.937 21.05,-5.805c-0.07,-2.867 -9.091,-5.245 -21.12,-5.805l0,0.001z" id="svg_76"/>
   </g>
  </g>
 </g>
</svg>