<svg width="193" height="230" xmlns="http://www.w3.org/2000/svg">
 <style>.B{fill-rule:evenodd}.C{fill:#633001}.D{fill:#fedc90}.E{fill:#d1884f}</style>
 <defs>
  <clipPath id="B">
   <path id="svg_1" d="m0,0l192.24,0l0,230l-192.24,0l0,-230z" fill="#fff"/>
  </clipPath>
  <path d="m58.863,52.165c0,9.167 10.737,16.598 23.98,16.598s23.98,-7.43 23.98,-16.598s-10.737,-16.598 -23.98,-16.598s-23.98,7.43 -23.98,16.598z" id="C"/>
 </defs>
 <g>
  <title>Layer 1</title>
  <g opacity="0.5" stroke="null" id="svg_63">
   <path stroke="null" id="svg_29" fill="#A0AD2F" d="m189.14365,92.61164c-2.16055,-49.30255 -42.80894,-88.61164 -92.64365,-88.61164c-51.21894,0 -92.74002,41.52144 -92.74002,92.74002c0,44.20909 30.93532,81.18809 72.3383,90.4831l113.04537,-94.61148z"/>
   <path stroke="null" id="svg_30" fill="#63842C" d="m189.24001,96.74002c0,-1.38385 -0.03623,-2.75938 -0.09636,-4.12838l-76.51486,-76.51522l-50.40203,157.25483l13.87188,13.87188c6.56498,1.47442 13.39151,2.25692 20.40135,2.25692c51.21857,0 92.74002,-41.52144 92.74002,-92.74002z"/>
   <rect stroke="null" transform="matrix(0.3622656934983813,0,0,0.3622656934983813,-1336.2832320634268,-1567.803619074492) " id="svg_31" fill="#FFF3AD" height="103.513" width="55.652" y="4427.85743" x="3943.93186"/>
   <rect stroke="null" transform="matrix(0.3622656934983813,0,0,0.3622656934983813,-1336.2832320634268,-1567.803619074492) " id="svg_32" fill="#FFFFFF" height="103.513" width="44.522" y="4427.85743" x="3910.53986"/>
   <path stroke="null" id="svg_33" fill="#FFE65A" d="m130.77359,80.61122l0,92.74002l-34.27359,0l-16.12879,-58.46642l16.12879,-58.46642l10.08041,0c13.30638,0 24.19319,10.88681 24.19319,24.19283z"/>
   <path stroke="null" id="svg_34" fill="#FFF3AD" d="m96.5,56.4184l0,116.93321l-34.27359,0l0,-92.74002c0,-13.30602 10.88681,-24.19319 24.19319,-24.19319l10.08041,0z"/>
   <polygon stroke="null" id="svg_35" fill="#521F0E" points="112.62883758544922,16.096355438232422 112.62883758544922,36.257171630859375 88.43562316894531,36.257171630859375 96.50006866455078,16.096355438232422 "/>
   <polygon stroke="null" id="svg_36" fill="#F94C10" points="104.56437683105469,36.257171630859375 104.56437683105469,48.35401153564453 96.50006866455078,48.35401153564453 88.43562316894531,36.257171630859375 "/>
   <rect stroke="null" transform="matrix(0.3622656934983813,0,0,0.3622656934983813,-1336.2832320634268,-1567.803619074492) " id="svg_37" fill="#FC870B" height="33.391" width="22.261" y="4427.85743" x="3932.80086"/>
   <rect stroke="null" transform="matrix(0.3622656934983813,0,0,0.3622656934983813,-1336.2832320634268,-1567.803619074492) " id="svg_38" fill="#813115" height="55.652" width="44.522" y="4372.20543" x="3910.53986"/>
   <polygon stroke="null" id="svg_39" fill="#FFE376" points="96.50006866455078,32.22524642944336 92.7809829711914,36.257171630859375 96.50006866455078,40.28957748413086 116.66087341308594,40.28957748413086 116.66087341308594,32.22524642944336 "/>
   <rect stroke="null" transform="matrix(0.3622656934983813,0,0,0.3622656934983813,-1336.2832320634268,-1567.803619074492) " id="svg_40" fill="#FFF3AD" height="22.261" width="55.652" y="4416.72743" x="3899.40986"/>
   <path stroke="null" id="svg_41" fill="#BEC130" d="m106.5804,68.51481l-11.04802,0l-11.1288,46.37001l11.1288,46.37001l23.14479,0l0,-80.6436c-0.00036,-6.67004 -5.42674,-12.09641 -12.09678,-12.09641z"/>
   <g stroke="null" transform="matrix(0.3622656934983813,0,0,0.3622656934983813,-1336.2832320634268,-1567.803619074492) " id="svg_42">
    <path stroke="null" id="svg_43" fill="#DDD532" d="m3955.06183,4516.90122l-27.826,0c-18.412,0 -33.391,14.979 -33.391,33.391l0,222.609l61.217,0l0,-256z"/>
    <path stroke="null" id="svg_44" fill="#DDD532" d="m4027.40983,4550.29222l0,233.739l-72.348,0l-11.13,-11.13l11.13,-11.13l50.087,0l0,-211.479c0,-12.277 -9.984,-22.261 -22.261,-22.261l-27.826,0l-11.13,-11.13l11.13,-11.13l27.826,0c24.554,0 44.522,19.968 44.522,44.521z"/>
   </g>
   <path stroke="null" id="svg_45" fill="#FFE65A" d="m96.5,157.22281l0,8.0644l-26.2092,0l0,-84.67598c0,-8.89507 7.23372,-16.12879 16.12879,-16.12879l10.08041,0l0,8.0644l-10.08041,0c-4.44754,0 -8.0644,3.61686 -8.0644,8.0644l0,76.61122l18.1448,0l0,0.00036z"/>
   <path stroke="null" id="svg_46" fill="#44702A" d="m111.1569,124.42074c5.9071,5.9071 4.13309,17.25761 -3.95956,25.35425c-3.2459,3.2459 -7.016,5.47166 -10.74589,6.5965l-8.0644,-17.27971l8.0644,-17.27971c5.60896,-1.72185 11.1451,-0.95167 14.70545,2.60868z"/>
   <path stroke="null" id="svg_47" fill="#63842C" d="m96.45145,121.81206l0,34.55978c-5.57636,1.68526 -11.0683,0.90313 -14.60873,-2.63693c-5.9071,-5.9071 -4.13309,-17.25761 3.95956,-25.35425c3.21801,-3.21801 6.95188,-5.43543 10.64916,-6.5686z"/>
   <g stroke="null" transform="matrix(0.3622656934983813,0,0,0.3622656934983813,-1336.2832320634268,-1567.803619074492) " id="svg_48"/>
   <g stroke="null" transform="matrix(0.3622656934983813,0,0,0.3622656934983813,-1336.2832320634268,-1567.803619074492) " id="svg_49"/>
   <g stroke="null" transform="matrix(0.3622656934983813,0,0,0.3622656934983813,-1336.2832320634268,-1567.803619074492) " id="svg_50"/>
   <g stroke="null" transform="matrix(0.3622656934983813,0,0,0.3622656934983813,-1336.2832320634268,-1567.803619074492) " id="svg_51"/>
   <g stroke="null" transform="matrix(0.3622656934983813,0,0,0.3622656934983813,-1336.2832320634268,-1567.803619074492) " id="svg_52"/>
   <g stroke="null" transform="matrix(0.3622656934983813,0,0,0.3622656934983813,-1336.2832320634268,-1567.803619074492) " id="svg_53"/>
   <g stroke="null" transform="matrix(0.3622656934983813,0,0,0.3622656934983813,-1336.2832320634268,-1567.803619074492) " id="svg_54"/>
   <g stroke="null" transform="matrix(0.3622656934983813,0,0,0.3622656934983813,-1336.2832320634268,-1567.803619074492) " id="svg_55"/>
   <g stroke="null" transform="matrix(0.3622656934983813,0,0,0.3622656934983813,-1336.2832320634268,-1567.803619074492) " id="svg_56"/>
   <g stroke="null" transform="matrix(0.3622656934983813,0,0,0.3622656934983813,-1336.2832320634268,-1567.803619074492) " id="svg_57"/>
   <g stroke="null" transform="matrix(0.3622656934983813,0,0,0.3622656934983813,-1336.2832320634268,-1567.803619074492) " id="svg_58"/>
   <g stroke="null" transform="matrix(0.3622656934983813,0,0,0.3622656934983813,-1336.2832320634268,-1567.803619074492) " id="svg_59"/>
   <g stroke="null" transform="matrix(0.3622656934983813,0,0,0.3622656934983813,-1336.2832320634268,-1567.803619074492) " id="svg_60"/>
   <g stroke="null" transform="matrix(0.3622656934983813,0,0,0.3622656934983813,-1336.2832320634268,-1567.803619074492) " id="svg_61"/>
   <g stroke="null" transform="matrix(0.3622656934983813,0,0,0.3622656934983813,-1336.2832320634268,-1567.803619074492) " id="svg_62"/>
  </g>
 </g>
</svg>