<svg width="200" height="200" xmlns="http://www.w3.org/2000/svg">
 <!-- Created with Method Draw - http://github.com/duopixel/Method-Draw/ -->

 <g id="Layer_1">
  <title>Layer 1</title>
  <g stroke="null" id="svg_44">
   <path stroke="null" d="m102.80868,66.86094c-1.69512,1.99635 -4.92429,1.83219 -6.37006,-0.47005l-4.91423,-7.8352l-6.34374,-0.59472l2.97363,8.51124c2.03817,5.60575 1.44423,11.83101 -1.61768,16.95046l-1.50463,2.51597l9.46605,4.95605l11.70247,-24.1646l-3.3918,0.13087l-0.00001,-0.00001zm0,0" fill="#ddb44e" id="svg_4"/>
   <path stroke="null" d="m111.84418,66.4722c-2.0374,5.60653 -1.44268,11.83101 1.61768,16.94968l1.50462,2.51597l-10.35813,4.90648l-11.28353,-4.90648c0.30511,-2.05599 0.83401,-4.06628 1.57742,-5.99295c0.7434,-1.92899 1.69745,-3.77434 2.85128,-5.50276l5.05517,-7.5812c0.00155,-0.00155 0.00155,-0.00387 0.00387,-0.00387c0.11074,-0.13319 0.2176,-0.27568 0.31517,-0.42591l1.09033,-1.68351l4.81124,-7.42632s1.4117,-2.4424 4.21883,-1.77953c2.80868,0.65977 1.78418,2.84043 1.78418,2.84043l-0.81078,1.75243l-2.37736,6.33754l-0.00001,0zm0,0" fill="#edd183" id="svg_5"/>
   <path stroke="null" d="m119.52604,94.85873l0,-6.93847c0,-1.09498 -0.88744,-1.98242 -1.98242,-1.98242l-35.08803,0c-1.09498,0 -1.98242,0.88744 -1.98242,1.98242l0,6.93847l39.05287,0zm0,0" fill="#96bc5e" id="svg_6"/>
   <path stroke="null" d="m119.52604,87.92026l0,6.93847l-5.94726,0l0,-6.93847c0,-1.0942 -0.88822,-1.98242 -1.98242,-1.98242l5.94726,0c1.0942,0 1.98242,0.88822 1.98242,1.98242zm0,0" fill="#85993d" id="svg_7"/>
   <path stroke="null" d="m94.86662,21.13444c-0.51342,-3.27022 -3.34301,-5.7707 -6.75648,-5.7707c-0.32988,0 -0.65281,0.02478 -0.9703,0.06969c-0.78445,-3.2315 -3.69535,-5.63131 -7.16846,-5.63131c-3.74104,0 -6.83005,2.78468 -7.31172,6.39407c-0.97185,-0.53045 -2.08696,-0.83246 -3.27177,-0.83246c-3.77744,0 -6.83934,3.0619 -6.83934,6.83934c0,0.99586 0.21373,1.9406 0.59627,2.7932c-3.92999,0.25477 -7.03913,3.52111 -7.03913,7.51538c0,3.13935 1.92047,5.82877 4.65017,6.96092c-2.41684,1.14299 -4.08874,3.60243 -4.08874,6.4537c0,3.48627 2.50048,6.38633 5.80477,7.01048c-0.24858,0.6559 -0.38642,1.36601 -0.38642,2.10864c0,3.28415 2.6631,5.94726 5.94726,5.94726c1.92124,0 3.62798,-0.91145 4.71521,-2.3247c0.65203,2.77151 3.13935,4.83602 6.10988,4.83602c2.96356,0 5.44623,-2.05521 6.10446,-4.81743c1.08801,1.40241 2.78855,2.30611 4.7005,2.30611c3.28493,0 5.94726,-2.66233 5.94726,-5.94726c0,-0.74264 -0.13706,-1.45274 -0.38564,-2.10864c3.30428,-0.62415 5.80477,-3.52421 5.80477,-7.01048c-2.20312,-8.75594 5.46404,-19.10633 -6.16253,-24.79184l-0.00001,0.00001zm0,0" fill="#96bc5e" id="svg_8"/>
   <path stroke="null" d="m101.02838,45.92707c0,3.3221 -2.27204,6.11375 -5.34634,6.90439c-0.35699,-0.84252 -0.55523,-1.76869 -0.55523,-2.74131c0,-1.82987 0.69772,-3.49556 1.83916,-4.74619c-0.28885,0.0333 -0.58234,0.05343 -0.88202,0.05343c-4.16076,0 -7.53319,-3.37243 -7.53319,-7.53319c0,-2.84895 1.58207,-5.32852 3.91528,-6.60703c-2.33321,-1.28083 -3.91528,-3.76118 -3.91528,-6.61013c0,-3.14941 1.93673,-5.84813 4.68502,-6.97177c0.84408,0.95326 1.42486,2.14272 1.63085,3.45917c0.13475,0.06582 0.27026,0.13319 0.39881,0.20056c-0.49173,0.99895 -0.76741,2.12258 -0.76741,3.31203c0,2.84895 1.58207,5.3293 3.91528,6.61013c-2.33321,1.2785 -3.91528,3.75807 -3.91528,6.60703c0,3.77279 2.77384,6.89665 6.39175,7.44569c0.04105,0.20676 0.08673,0.41275 0.13862,0.61718l-0.00001,0.00001zm0,0" fill="#85993d" id="svg_9"/>
   <path stroke="null" d="m121.56809,90.89389c1.90189,0 3.31513,1.76172 2.90239,3.61869l-0.66055,2.97363c-0.30278,1.36059 -1.50927,2.32857 -2.90316,2.32857l-41.81509,0c-1.39389,0 -2.60037,-0.96798 -2.90316,-2.32857l-0.66055,-2.97363c-0.41274,-1.85697 1.0005,-3.61869 2.90238,-3.61869l43.13773,0l-0.00001,0zm0,0" fill="#9e7f56" id="svg_10"/>
   <path stroke="null" d="m124.47047,94.51181l-0.66055,2.97363c-0.30278,1.36214 -1.5085,2.32934 -2.90161,2.32934l-5.94726,0c1.39312,0 2.59882,-0.9672 2.90161,-2.32934l0.58311,-2.6267l0.07744,-0.34692c0.41197,-1.85542 -1.00128,-3.61791 -2.90239,-3.61791l5.94726,0c1.90111,0 3.31436,1.7625 2.90239,3.61791l0,-0.00001zm0,0" fill="#87613c" id="svg_11"/>
   <path stroke="null" d="m111.84418,66.4722c-2.0374,5.60653 -1.44268,11.83101 1.61768,16.94968l1.50462,2.51597l-5.94726,0l-1.50462,-2.51597c-3.06036,-5.11867 -3.65508,-11.34315 -1.61768,-16.94968l2.37736,-6.33754l0.81078,-1.75243s0.30124,-0.63809 0.12855,-1.33039c0.46618,-0.61641 1.81438,-2.03353 4.03453,-1.51004c2.80868,0.65977 1.78418,2.84043 1.78418,2.84043l-0.81078,1.75243l-2.37736,6.33754zm0,0" fill="#ddb44e" id="svg_12"/>
   <path stroke="null" d="m139.97903,31.25639c2.33243,-1.28005 3.9145,-3.75962 3.9145,-6.6078c0,-3.18581 -1.97777,-5.90699 -4.77174,-7.00894c0.76122,-1.20416 1.20339,-2.62903 1.20339,-4.15921c0,-4.30634 -3.49092,-7.79725 -7.79803,-7.79725c-2.25965,0 -4.29472,0.96256 -5.71881,2.4997c-0.37171,-3.86881 -3.63031,-6.89432 -7.59592,-6.89432c-0.00542,0 -0.01084,0.00078 -0.01626,0.00078s-0.01084,-0.00078 -0.01704,-0.00078c-3.96561,0 -7.22421,3.02551 -7.59591,6.89355c-1.42409,-1.53638 -3.45839,-2.4997 -5.71882,-2.4997c-4.30634,0 -7.79725,3.49169 -7.79725,7.79803c0,1.5294 0.44217,2.95504 1.20261,4.15921c-2.7932,1.10117 -4.77097,3.82313 -4.77097,7.00816c0,2.84895 1.58129,5.32775 3.9145,6.6078c-2.33321,1.28005 -3.9145,3.75962 -3.9145,6.6078c0,4.16076 3.37243,7.53319 7.53319,7.53319c0.29891,0 0.5924,-0.01936 0.88202,-0.05265c-1.14299,1.2514 -1.84071,2.91632 -1.84071,4.74464c0,3.88662 3.15096,7.03759 7.03759,7.03759c1.41402,0 2.7297,-0.41816 3.83242,-1.13602c0.70701,3.27409 3.61791,5.72888 7.10419,5.72888c3.54899,0 6.50248,-2.54384 7.1398,-5.90776c1.15305,0.82704 2.5663,1.3149 4.09339,1.3149c3.88662,0 7.03759,-3.15096 7.03759,-7.03759c0,-1.82832 -0.69772,-3.49324 -1.8407,-4.74464c0.28962,0.03407 0.58388,0.05265 0.88279,0.05265c4.15998,0 7.53319,-3.37243 7.53319,-7.53319c0,-2.84818 -1.58207,-5.32697 -3.9145,-6.60703l-0.00001,-0.00001zm0,0" fill="#92d37a" id="svg_13"/>
   <g stroke="null" fill="#70ba4d" id="svg_14" transform="matrix(0.19824185006707368,0,0,0.19824185006707368,-1055.5633087831413,-1113.5702580063426) ">
    <path stroke="null" d="m5959.54675,5904.55114c-5.15234,14.00782 -18.60156,24.00782 -34.41016,24.00782c-5.33984,0 -10.42187,-1.13672 -15,-3.20704c10.75782,-4.82031 18.75782,-14.67968 21.01954,-26.58984c5.82031,4.16797 12.9375,6.64063 20.64843,6.64063c2.66016,0 5.25,-0.29297 7.74219,-0.85157zm0,0" id="svg_15"/>
    <path stroke="null" d="m5960.87488,5645.96911c-10.48829,0.58985 -19.87891,5.30078 -26.58985,12.53125c-1.3789,-14.34765 -10.64062,-26.41015 -23.39844,-31.76953c4.58985,-1.92969 9.62891,-3 14.91797,-3l0.17188,0c15.44922,0 28.76953,9.10156 34.89844,22.23828zm0,0" id="svg_16"/>
    <path stroke="null" d="m6050.47644,5808.23083c0,20.98828 -17.01953,38 -38,38c-1.51172,0 -2.99219,-0.10156 -4.44922,-0.26953c5.75781,6.30859 9.27734,14.71094 9.27734,23.94141c0,19.59765 -15.89062,35.5 -35.5,35.5c-5.35937,0 -10.4375,-1.19141 -14.98828,-3.32032c12.10938,-5.66015 20.48828,-17.9414 20.48828,-32.17968c0,-9.23047 -3.51953,-17.63282 -9.27734,-23.94141c1.45703,0.16797 2.9375,0.26953 4.44922,0.26953c20.98047,0 38,-17.01172 38,-38c0,-14.37109 -7.98047,-26.87891 -19.75,-33.32812c11.76953,-6.46094 19.75,-18.97266 19.75,-33.34375c0,-16.0586 -9.98047,-29.78907 -24.07031,-35.34766c3.83984,-6.07031 6.07031,-13.26172 6.07031,-20.98047c0,-16.41016 -10.05078,-30.48047 -24.35156,-36.37109c4.62109,-1.91016 9.6914,-2.95703 15.01171,-2.95703c21.73047,0 39.33985,17.60937 39.33985,39.32812c0,7.71875 -2.23047,14.91016 -6.07032,20.98047c14.08985,5.55859 24.07032,19.28906 24.07032,35.34766c0,14.37109 -7.98047,26.88281 -19.75,33.34375c11.76953,6.44921 19.75,18.95703 19.75,33.32812zm0,0" id="svg_17"/>
   </g>
   <path stroke="null" d="m142.50042,31.45463c1.81283,-1.68583 2.87992,-4.06938 2.87992,-6.60858c0,-3.17652 -1.62775,-6.03786 -4.25523,-7.66174c0.45224,-1.10736 0.68688,-2.29604 0.68688,-3.50563c0,-5.11944 -4.16463,-9.28407 -9.28407,-9.28407c-1.71449,0 -3.38715,0.48089 -4.83137,1.35982c-1.33736,-3.40728 -4.63855,-5.75443 -8.48336,-5.75443c-0.01007,0 -0.02323,0 -0.0333,0c-3.84558,0 -7.146,2.34715 -8.48413,5.75443c-1.44345,-0.8797 -3.11688,-1.35982 -4.83137,-1.35982c-5.11944,0 -9.28407,4.16463 -9.28407,9.28407c0,1.20959 0.23463,2.39826 0.68688,3.50563c-0.64428,0.39881 -1.22817,0.87273 -1.74313,1.40628c-1.37375,-2.69407 -4.14372,-4.48135 -7.32333,-4.51465c-1.32807,-3.32907 -4.55336,-5.56239 -8.22859,-5.56239c-3.78828,0 -7.10186,2.42227 -8.34319,5.86904c-0.72714,-0.20289 -1.48217,-0.30743 -2.24106,-0.30743c-4.59132,0 -8.32616,3.73485 -8.32616,8.32616c0,0.54904 0.05266,1.08956 0.15798,1.62001c-3.81926,1.06322 -6.60084,4.58047 -6.60084,8.68856c0,2.79397 1.27309,5.36105 3.3794,7.043c-1.76094,1.61226 -2.8172,3.92225 -2.8172,6.37162c0,3.60475 2.23564,6.7712 5.49657,8.03808c-0.05189,0.35622 -0.07821,0.71708 -0.07821,1.08104c0,4.09881 3.33449,7.43407 7.43407,7.43407c1.51005,0 2.94575,-0.44682 4.15611,-1.26612c1.36756,2.30146 3.86417,3.77666 6.66821,3.77666c2.4819,0 4.72296,-1.16003 6.15479,-3.02397l1.73771,4.99477c0.00233,0.0062 0.00465,0.01239 0.00697,0.01936c1.89414,5.2085 1.3482,10.92344 -1.49611,15.67969l-1.07175,1.79192l-1.73384,0c-1.91273,0 -3.46923,1.55573 -3.46923,3.46846l0,1.48682l-0.55523,0c-1.35982,0 -2.62825,0.60867 -3.4793,1.66957c-0.85105,1.0609 -1.17009,2.43079 -0.87506,3.75885l0.66132,2.97363c0.45688,2.05599 2.24726,3.49247 4.35435,3.49247l31.51348,0c0.82084,0 1.48682,-0.6652 1.48682,-1.48682s-0.66597,-1.48682 -1.48682,-1.48682l-31.51348,0c-0.70237,0 -1.29941,-0.47857 -1.45119,-1.16389l-0.66132,-2.97363c-0.09835,-0.44295 0.00851,-0.89906 0.29194,-1.25295c0.28343,-0.35389 0.70624,-0.55678 1.15925,-0.55678l2.04204,0c0.82162,0 1.48682,-0.6652 1.48682,-1.48682l0,-2.97363c0,-0.27336 0.22225,-0.49483 0.4956,-0.49483l2.5725,0l0.0031,0l0.00309,0l32.50934,0c0.27336,0 0.4956,0.22147 0.4956,0.49483l0,1.48682l-30.62759,0c-0.82084,0 -1.48682,0.66597 -1.48682,1.48682c0,0.82162 0.66597,1.48682 1.48682,1.48682l34.15645,0c0.45379,0 0.8766,0.20289 1.16003,0.55678c0.28342,0.35389 0.38951,0.81 0.29117,1.25295l-0.66055,2.97363c-0.15256,0.68533 -0.74883,1.16389 -1.45119,1.16389l-3.36392,0c-0.82084,0 -1.48682,0.6652 -1.48682,1.48682s0.66597,1.48682 1.48682,1.48682l3.36392,0c2.10632,0 3.89669,-1.43648 4.35435,-3.49247l0.66055,-2.97363c0.29504,-1.32807 -0.02401,-2.69794 -0.87505,-3.75885c-0.85027,-1.0609 -2.11871,-1.66957 -3.4793,-1.66957l-0.55523,0l0,-1.48682c0,-1.91273 -1.55573,-3.46846 -3.46923,-3.46846l-1.73307,0l-1.07175,-1.79192c-2.84508,-4.75625 -3.39024,-10.4712 -1.50153,-15.66575l1.79269,-4.77639c1.21501,0.63267 2.58566,0.98811 4.01827,0.98811c3.52499,0 6.63955,-2.10787 8.01253,-5.22243c1.01366,0.41507 2.10245,0.63035 3.22066,0.63035c4.7005,0 8.5244,-3.8239 8.5244,-8.5244c0,-1.17397 -0.23929,-2.32005 -0.69539,-3.37553c4.13907,-0.81697 7.27067,-4.47438 7.27067,-8.84964c0,-2.5392 -1.06788,-4.92275 -2.8807,-6.6078l-0.00001,0.00001zm-56.36263,26.51872c-0.35079,-0.45224 -0.93004,-0.6621 -1.48913,-0.54207c-0.55911,0.1208 -0.99973,0.55213 -1.13215,1.10891c-0.51574,2.16362 -2.43156,3.67444 -4.65868,3.67444c-2.23409,0 -4.15146,-1.51701 -4.66178,-3.68916c-0.13164,-0.55833 -0.57304,-0.99198 -1.1337,-1.11278c-0.56142,-0.12158 -1.14221,0.09215 -1.49224,0.54671c-0.85337,1.10891 -2.14194,1.74468 -3.5366,1.74468c-2.45944,0 -4.46044,-2.00101 -4.46044,-4.46044c0,-0.54284 0.09757,-1.07485 0.28962,-1.58129c0.15565,-0.4112 0.12158,-0.87041 -0.0937,-1.2545c-0.2145,-0.38332 -0.58853,-0.65203 -1.02063,-0.73411c-2.66233,-0.50257 -4.59363,-2.83657 -4.59363,-5.54922c0,-2.17369 1.27076,-4.17934 3.23769,-5.10938c0.53123,-0.25167 0.86498,-0.79296 0.85027,-1.38072c-0.01394,-0.58776 -0.37402,-1.11202 -0.91687,-1.33658c-2.26739,-0.94088 -3.73252,-3.13392 -3.73252,-5.58794c0,-3.17652 2.48112,-5.82645 5.64834,-6.03166c0.48631,-0.03175 0.92616,-0.29891 1.17784,-0.7163c0.2509,-0.41661 0.28188,-0.9308 0.08286,-1.3753c-0.30975,-0.69075 -0.46618,-1.42564 -0.46618,-2.18453c0,-2.95195 2.40058,-5.35253 5.35253,-5.35253c0.89441,0 1.77953,0.22457 2.55933,0.65048c0.42978,0.23463 0.94784,0.24238 1.38459,0.02091c0.43753,-0.22147 0.73722,-0.64428 0.80149,-1.12982c0.38874,-2.90935 2.89851,-5.10396 5.83807,-5.10396c2.72737,0 5.08072,1.84922 5.72423,4.49606c0.18043,0.7434 0.89519,1.22817 1.65331,1.12053c0.25709,-0.03639 0.51342,-0.05421 0.76122,-0.05421c2.65304,0 4.87706,1.89801 5.28749,4.51388c0.01936,0.12235 0.05421,0.23774 0.0999,0.34692c-0.31595,0.92616 -0.48631,1.91427 -0.48631,2.93646c0,2.5392 1.0671,4.92198 2.8807,6.6078c-1.81361,1.68583 -2.8807,4.0686 -2.8807,6.6078c0,4.09881 2.7475,7.56727 6.49784,8.66147c-0.26019,2.45092 -2.0978,4.48522 -4.56111,4.94985c-0.43211,0.08208 -0.80613,0.35079 -1.02063,0.73489c-0.21528,0.38332 -0.24935,0.84252 -0.09292,1.25373c0.19128,0.50644 0.28885,1.03767 0.28885,1.58129c0,2.45944 -2.00101,4.46044 -4.46044,4.46044c-1.3877,0 -2.67239,-0.63112 -3.52576,-1.73075l-0.00002,0.00001zm10.88085,-3.81074c1.06555,-0.41352 2.02036,-1.03148 2.82494,-1.79966c0.80226,3.1951 3.4127,5.67777 6.67517,6.29728l-3.54435,5.47023l-1.33581,2.00333c-0.46928,0.53045 -1.1275,0.82704 -1.85774,0.82472c-0.86421,-0.00542 -1.62388,-0.42746 -2.08387,-1.16003l-3.12773,-4.97696c1.54877,-1.36291 2.52836,-3.35772 2.52836,-5.57865c0,-0.36318 -0.02633,-0.72405 -0.07898,-1.08026zm-9.3646,30.48743l0.15875,-0.26639c3.30429,-5.52367 3.93928,-12.16168 1.74313,-18.21115l-1.26147,-3.62489c0.44682,0.08286 0.90371,0.13009 1.36911,0.13009c0.81155,0 1.59291,-0.13319 2.3247,-0.3748l3.19123,5.0784c0.88357,1.40628 2.33167,2.31385 3.954,2.50978l-2.61664,3.92302c-2.17446,3.26093 -3.69613,6.98338 -4.44263,10.83516l-4.42017,0l0,0.00078l0.00001,0zm22.79394,-18.48838c-2.20157,6.05335 -1.56735,12.69522 1.73849,18.22199l0.15875,0.26639l-17.2362,0c0.70624,-3.26557 2.0312,-6.41189 3.8812,-9.18572l5.02187,-7.5301c0.12855,-0.15797 0.2509,-0.32215 0.36241,-0.49638l5.74592,-8.86745c0.32524,-0.07899 0.64661,-0.17501 0.96101,-0.29194c0.37867,0.82549 0.88279,1.57819 1.48371,2.23874l-2.11716,5.64447l0.00001,0zm28.81631,-33.40375c1.93828,1.064 3.14244,3.09598 3.14244,5.30452c0,3.33371 -2.71266,6.04638 -6.04638,6.04638c-0.22845,0 -0.46076,-0.01394 -0.71088,-0.04336c-0.61564,-0.06892 -1.21191,0.24703 -1.49456,0.79916c-0.28343,0.55291 -0.19282,1.22275 0.22534,1.68041c0.93623,1.02528 1.45197,2.35412 1.45197,3.74259c0,3.06036 -2.49041,5.55077 -5.55077,5.55077c-1.16545,0 -2.28133,-0.35854 -3.2284,-1.0369c-0.41197,-0.29582 -0.94629,-0.36086 -1.41867,-0.17191c-0.47083,0.18895 -0.8131,0.60479 -0.90758,1.10349c-0.51652,2.72195 -2.90471,4.6974 -5.67932,4.6974c-2.70414,0 -5.08072,-1.91582 -5.65067,-4.55569c-0.10299,-0.47779 -0.43443,-0.87428 -0.88666,-1.0609c-0.18198,-0.07512 -0.3748,-0.11229 -0.56608,-0.11229c-0.2842,0 -0.56608,0.08131 -0.81155,0.24084c-0.89983,0.58621 -1.94525,0.89596 -3.02087,0.89596c-3.06114,0 -5.55077,-2.49041 -5.55077,-5.55077c0,-1.38847 0.51497,-2.71731 1.45119,-3.74181c0.41816,-0.45843 0.50877,-1.12828 0.22612,-1.68041c-0.28342,-0.55291 -0.87892,-0.86886 -1.49533,-0.79994c-0.24935,0.02943 -0.48244,0.04336 -0.71088,0.04336c-3.33371,0 -6.04638,-2.71266 -6.04638,-6.04638c0,-2.20776 1.20416,-4.24052 3.14322,-5.30452c0.47547,-0.26097 0.77128,-0.76044 0.77128,-1.30329s-0.29582,-1.04232 -0.77128,-1.30329c-1.93905,-1.064 -3.14322,-3.09675 -3.14322,-5.30452c0,-2.4997 1.50308,-4.70824 3.83009,-5.62589c0.41198,-0.16185 0.73024,-0.50025 0.86808,-0.92074c0.13706,-0.42127 0.07976,-0.88202 -0.1572,-1.25605c-0.63654,-1.00747 -0.97262,-2.17137 -0.97262,-3.36546c0,-3.4793 2.83114,-6.31044 6.31044,-6.31044c1.77566,0 3.41967,0.71863 4.62926,2.02346c0.39803,0.42901 1.01134,0.58466 1.5658,0.39803c0.55523,-0.18818 0.94784,-0.68378 1.00437,-1.26689c0.30278,-3.15793 2.9233,-5.53993 6.09826,-5.54922c0.02014,0.00078 0.04027,0.00078 0.06582,0c3.17652,0.00775 5.7978,2.39129 6.10058,5.54922c0.05576,0.58311 0.44914,1.07871 1.0036,1.26689c0.556,0.18662 1.16932,0.03097 1.56657,-0.39803c1.20959,-1.30484 2.8536,-2.02346 4.62926,-2.02346c3.4793,0 6.31044,2.83114 6.31044,6.31044c0,1.1941 -0.33608,2.35799 -0.9734,3.36546c-0.23618,0.37402 -0.29349,0.83479 -0.15643,1.25605c0.13784,0.42049 0.45611,0.75889 0.86808,0.92074c2.32625,0.91764 3.83009,3.12618 3.83009,5.62589c0,2.20776 -1.20416,4.24052 -3.14322,5.30452c-0.47547,0.26097 -0.77128,0.76044 -0.77128,1.30329s0.29581,1.04232 0.77206,1.30329l0.00002,0zm0,0" id="svg_18"/>
   <path stroke="null" d="m101.80043,21.80661c-1.63937,0 -2.97363,1.33426 -2.97363,2.97363s1.33426,2.97363 2.97363,2.97363s2.97363,-1.33426 2.97363,-2.97363s-1.33348,-2.97363 -2.97363,-2.97363zm0,0" id="svg_19"/>
   <path stroke="null" d="m136.691,21.80661c-1.63937,0 -2.97363,1.33426 -2.97363,2.97363s1.33426,2.97363 2.97363,2.97363s2.97363,-1.33426 2.97363,-2.97363s-1.33348,-2.97363 -2.97363,-2.97363zm0,0" id="svg_20"/>
   <path stroke="null" d="m119.24572,5.55077c-1.63937,0 -2.97363,1.33426 -2.97363,2.97363s1.33426,2.97363 2.97363,2.97363s2.97363,-1.33426 2.97363,-2.97363s-1.33348,-2.97363 -2.97363,-2.97363zm0,0" id="svg_21"/>
   <path stroke="null" d="m105.56703,16.25584c1.63937,0 2.97363,-1.33426 2.97363,-2.97363s-1.33426,-2.97363 -2.97363,-2.97363s-2.97363,1.33426 -2.97363,2.97363s1.33426,2.97363 2.97363,2.97363zm0,0" id="svg_22"/>
   <path stroke="null" d="m132.72616,16.45408c1.63937,0 2.97363,-1.33426 2.97363,-2.97363s-1.33426,-2.97363 -2.97363,-2.97363s-2.97363,1.33426 -2.97363,2.97363s1.33426,2.97363 2.97363,2.97363zm0,0" id="svg_23"/>
   <path stroke="null" d="m133.91562,38.26068c0,1.63937 1.33426,2.97363 2.97363,2.97363s2.97363,-1.33426 2.97363,-2.97363s-1.33426,-2.97363 -2.97363,-2.97363s-2.97363,1.33426 -2.97363,2.97363zm0,0" id="svg_24"/>
   <path stroke="null" d="m129.95078,46.98332c-1.63937,0 -2.97363,1.33426 -2.97363,2.97363s1.33426,2.97363 2.97363,2.97363s2.97363,-1.33426 2.97363,-2.97363s-1.33348,-2.97363 -2.97363,-2.97363zm0,0" id="svg_25"/>
   <path stroke="null" d="m119.24572,51.93937c-1.63937,0 -2.97363,1.33426 -2.97363,2.97363s1.33426,2.97363 2.97363,2.97363s2.97363,-1.33426 2.97363,-2.97363s-1.33348,-2.97363 -2.97363,-2.97363zm0,0" id="svg_26"/>
   <path stroke="null" d="m101.80043,35.28705c-1.63937,0 -2.97363,1.33426 -2.97363,2.97363s1.33426,2.97363 2.97363,2.97363s2.97363,-1.33426 2.97363,-2.97363s-1.33348,-2.97363 -2.97363,-2.97363zm0,0" id="svg_27"/>
   <path stroke="null" d="m108.34242,46.98332c-1.63937,0 -2.97363,1.33426 -2.97363,2.97363s1.33426,2.97363 2.97363,2.97363s2.97363,-1.33426 2.97363,-2.97363s-1.33348,-2.97363 -2.97363,-2.97363zm0,0" id="svg_28"/>
   <path stroke="null" d="m114.28967,27.35738c1.63937,0 2.97363,-1.33426 2.97363,-2.97363s-1.33426,-2.97363 -2.97363,-2.97363s-2.97363,1.33426 -2.97363,2.97363s1.33426,2.97363 2.97363,2.97363zm0,0" id="svg_29"/>
   <path stroke="null" d="m125.98594,25.77145c1.63937,0 2.97363,-1.33426 2.97363,-2.97363s-1.33426,-2.97363 -2.97363,-2.97363s-2.97363,1.33426 -2.97363,2.97363s1.33426,2.97363 2.97363,2.97363zm0,0" id="svg_30"/>
   <path stroke="null" d="m129.15781,38.26068c0,-1.63937 -1.33426,-2.97363 -2.97363,-2.97363s-2.97363,1.33426 -2.97363,2.97363s1.33426,2.97363 2.97363,2.97363s2.97363,-1.33426 2.97363,-2.97363zm0,0" id="svg_31"/>
   <path stroke="null" d="m113.4967,36.67475c-1.63937,0 -2.97363,1.33426 -2.97363,2.97363s1.33426,2.97363 2.97363,2.97363s2.97363,-1.33426 2.97363,-2.97363s-1.33348,-2.97363 -2.97363,-2.97363zm0,0" id="svg_32"/>
   <path stroke="null" d="m79.59735,20.22067c1.63937,0 2.97363,-1.33426 2.97363,-2.97363s-1.33426,-2.97363 -2.97363,-2.97363s-2.97363,1.33426 -2.97363,2.97363s1.33426,2.97363 2.97363,2.97363zm0,0" id="svg_33"/>
   <path stroke="null" d="m66.1169,32.51167c0,-1.63937 -1.33426,-2.97363 -2.97363,-2.97363s-2.97363,1.33426 -2.97363,2.97363s1.33426,2.97363 2.97363,2.97363s2.97363,-1.33426 2.97363,-2.97363zm0,0" id="svg_34"/>
   <path stroke="null" d="m69.68526,25.37496c1.63937,0 2.97363,-1.33426 2.97363,-2.97363s-1.33426,-2.97363 -2.97363,-2.97363s-2.97363,1.33426 -2.97363,2.97363s1.33426,2.97363 2.97363,2.97363zm0,0" id="svg_35"/>
   <path stroke="null" d="m63.738,43.01848c-1.63937,0 -2.97363,1.33426 -2.97363,2.97363s1.33426,2.97363 2.97363,2.97363s2.97363,-1.33426 2.97363,-2.97363s-1.33426,-2.97363 -2.97363,-2.97363zm0,0" id="svg_36"/>
   <path stroke="null" d="m79.00262,53.52531c-1.63937,0 -2.97363,1.33426 -2.97363,2.97363s1.33426,2.97363 2.97363,2.97363s2.97363,-1.33426 2.97363,-2.97363s-1.33426,-2.97363 -2.97363,-2.97363zm0,0" id="svg_37"/>
   <path stroke="null" d="m68.89229,50.94816c-1.63937,0 -2.97363,1.33426 -2.97363,2.97363s1.33426,2.97363 2.97363,2.97363s2.97363,-1.33426 2.97363,-2.97363s-1.33426,-2.97363 -2.97363,-2.97363zm0,0" id="svg_38"/>
   <path stroke="null" d="m92.28483,54.12003c0,-1.63937 -1.33426,-2.97363 -2.97363,-2.97363s-2.97363,1.33426 -2.97363,2.97363s1.33426,2.97363 2.97363,2.97363s2.97363,-1.33426 2.97363,-2.97363zm0,0" id="svg_39"/>
   <path stroke="null" d="m87.52702,25.77145c1.63937,0 2.97363,-1.33426 2.97363,-2.97363s-1.33426,-2.97363 -2.97363,-2.97363s-2.97363,1.33426 -2.97363,2.97363s1.33426,2.97363 2.97363,2.97363zm0,0" id="svg_40"/>
   <path stroke="null" d="m72.25853,37.9517c-1.63937,0 -2.97363,1.33426 -2.97363,2.97363c0,1.64014 1.33426,2.97363 2.97363,2.97363s2.97363,-1.33349 2.97363,-2.97363c0,-1.63937 -1.33426,-2.97363 -2.97363,-2.97363zm0,0" id="svg_41"/>
   <path stroke="null" d="m88.31999,42.72112c0,-1.63937 -1.33426,-2.97363 -2.97363,-2.97363s-2.97363,1.33426 -2.97363,2.97363s1.33426,2.97363 2.97363,2.97363s2.97363,-1.33426 2.97363,-2.97363zm0,0" id="svg_42"/>
   <path stroke="null" d="m83.26405,31.02485c0,-1.63937 -1.33348,-2.97363 -2.97363,-2.97363c-1.63937,0 -2.97363,1.33426 -2.97363,2.97363s1.33426,2.97363 2.97363,2.97363c1.64014,0 2.97363,-1.33426 2.97363,-2.97363zm0,0" id="svg_43"/>
  </g>
 </g>
</svg>